<?xml version="1.0" encoding="UTF-8"?>
<svg id="Layer_1" data-name="Layer 1" xmlns="http://www.w3.org/2000/svg" viewBox="0 0 484.13 131.06">
  <defs>
    <style>
      .cls-1 {
        fill: #e63946;
      }
    </style>
  </defs>
  <path class="cls-1" d="M126.92,23.62l23.39,42.15V23.62h23.75v83.82h-33.58l.35-6.47,6.1-12.06c1.14-.27,2.31-.1,3.5-.39.28-.07.44.18.36-.35l-17.15-24.79-.48-.24-27.47.72V23.62h21.23Z"/>
  <path class="cls-1" d="M100.17,107.44h-5.52v-2.63h-3.96l-2.51-6.36c.02-.65,1.17-.81,1.66-1.2,5.02-3.93,3.6-9.53-1.78-12.08-4.77-2.26-10.69-1.86-15.23.72-.69-2.12-2.95-4.26-5.28-4.32,1.24-6.31-.97-11.31-7.92-11.61-.67-.37-2.52-4.67-3.35-5.52-.38-.4-.61-.31-1.08-.36-2.93-.29-10.6-.35-13.46,0-.21.03-.42,0-.6.12-.35.24-.46,3.01.17,3.21l13,.07,1.62,3.32c-3.96,1.63-7.25,4.28-10.47,7.04l-.24.72c3.49,2.86,6.89,6.1,11.35,7.38.65.19,3.24.51,3.31.82-.48,1.46.54,3.34.49,4.51-.04.98-1.01,1.74-.98,2.76l-5.25-2.38-5.42,13.15h-3.96v2.63h-22.79L47.03,23.6l28.56.25,24.58,83.59Z"/>
  <path class="cls-1" d="M239.31,23.62v24.67h-17.27v59.16h-23.75v-59.16h-17.03v-24.67h58.05ZM232.05,26.79c-3.94.66-3.86,7.01.42,7.37,5.8.49,5.56-8.37-.42-7.37ZM228.91,35.2c-1.92-1.92-4.98.84-3.28,2.92,1.9,2.32,5.37-.83,3.28-2.92ZM215.08,90.44h-4.8v4.19l.36.36h4.08l.36-.36v-4.19ZM210.28,95.47h-8.88v8.86h8.88v-8.86Z"/>
  <polygon points="288.72 41.34 299.4 84.93 310.07 41.34 330.22 41.34 310.44 107.46 287.88 107.21 268.57 41.34 288.72 41.34"/>
  <polygon points="427.13 41.34 436.61 64.81 446.68 41.34 466.95 41.34 446.08 82.65 446.08 107.44 427.37 107.44 427.37 82.65 406.5 41.34 427.13 41.34"/>
  <polygon points="404.82 41.34 404.82 60.74 391.15 60.74 391.15 107.44 372.44 107.44 372.44 60.74 358.77 60.74 358.77 41.34 404.82 41.34"/>
  <rect x="245.78" y="41.34" width="18.71" height="66.1"/>
  <rect x="334.3" y="41.34" width="18.71" height="66.1"/>
  <path class="cls-1" d="M105.69,68.4l4.44,6.23,1.48-2.89c11-1.05,22.07,4.74,27.82,14.03l-1.36,3.23,5.04-.24-5.31,10.86c-.99,1.29-5.65,3.98-6.09,4.95-.32.72.35,2.13.6,2.87h-26.63v-39.04ZM113.53,74.67l-6.05,11.94,22.45,11.39,5.89-11.39v-.96c-5.35-6.74-13.53-11.19-22.29-10.98Z"/>
  <path class="cls-1" d="M51.48,107.44l4.32-11.26,5.5,2.15,1.7-4.54c2.17,1.67,4.5,1.09,6.94.49l5.29,13.16h-23.75Z"/>
  <path class="cls-1" d="M88.18,107.44h-6.72v-2.63h-3.72l-2.52-5.99c3.12.8,6.31,1.41,9.49.56l3.46,8.06Z"/>
  <path class="cls-1" d="M56.35,75.9c1.38-1.56,4.14-.74,4.26,1.48.27,4.94-7.28,1.94-4.26-1.48Z"/>
</svg>